<svg xmlns="http://www.w3.org/2000/svg" viewBox="0 0 38.51 38.5" id="reddit">
  <g>
    <g>
      <path fill="#ff4500" d="M38.51,19.25c0,.64-.03,1.27-.09,1.89-.45,4.54-2.49,8.64-5.56,11.71-2.58,2.58-5.87,4.43-9.55,5.22-1.31.28-2.66.43-4.05.43C8.67,38.5,0,29.84,0,19.25c0-5.29,2.17-10.11,5.66-13.6C9.15,2.16,13.97,0,19.26,0s10.11,2.16,13.6,5.65c3.49,3.49,5.65,8.31,5.65,13.6Z"></path>
      <path fill="#c62f00" d="M38.42,21.14c-.45,4.54-2.49,8.64-5.56,11.71-2.58,2.58-5.87,4.43-9.55,5.22-3.98-3.97-7.94-7.93-11.92-11.91-1.09-1.09-1.73-2.41-1.73-3.84-.02-.17-.01-.34,0-.51-.2-.21-.41-.4-.6-.6-.01-.02-.04-.03-.05-.05-.98-.91-1.02-2.44-.11-3.41.91-.98,2.44-1.02,3.41-.11,1.91-1.29,4.15-2,6.45-2.03l1.22-5.74h0c.06-.29.34-.46.61-.4l4.06.81c.25-.45.72-.76,1.24-.81.58-.06,1.11.18,1.45.59.05.04.1.08.14.13,3.65,3.65,7.29,7.3,10.94,10.95Z"></path>
      <path fill="#fff" d="M30.27,19.4c-.05-1.33-1.17-2.37-2.5-2.33-.59.02-1.15.26-1.58.67-1.88-1.28-4.09-1.99-6.37-2.03l1.07-5.16,3.54.74c.1.91.91,1.57,1.82,1.47.91-.1,1.57-.91,1.47-1.82s-.91-1.57-1.82-1.47c-.52.05-.99.36-1.25.81l-4.05-.81c-.28-.06-.55.11-.61.39h0s-1.22,5.75-1.22,5.75c-2.3.04-4.54.74-6.45,2.03-.97-.91-2.5-.87-3.41.11-.91.97-.87,2.5.11,3.41.19.18.41.33.65.44-.02.24-.02.49,0,.73,0,3.7,4.32,6.72,9.64,6.72s9.64-3.01,9.64-6.72c.02-.24.02-.49,0-.73.83-.42,1.35-1.27,1.34-2.2ZM13.73,21.05c0-.91.74-1.66,1.66-1.66s1.66.74,1.66,1.66-.74,1.66-1.66,1.66c-.92,0-1.66-.74-1.66-1.66ZM23.34,25.66v-.07c-1.18.88-2.61,1.34-4.09,1.27-1.47.06-2.91-.39-4.09-1.27-.16-.19-.13-.47.06-.63.16-.14.4-.14.57,0,.99.73,2.21,1.1,3.44,1.04,1.23.07,2.45-.29,3.46-1.01.18-.18.48-.17.65,0,.18.18.17.48,0,.65ZM23.11,22.83h-.08v-.06c-.9,0-1.64-.74-1.64-1.66s.74-1.66,1.66-1.66,1.66.74,1.66,1.66c.04.91-.67,1.68-1.59,1.72Z"></path>
    </g>
  </g>
</svg>
